<svg width="17" height="16" viewBox="0 0 17 16" fill="none" xmlns="http://www.w3.org/2000/svg">
<path d="M7.48203 0.469125C7.71593 -0.156375 8.60063 -0.156375 8.83453 0.469125L10.4297 4.73532C10.5312 5.00668 10.7851 5.19112 11.0745 5.20376L15.6249 5.4026C16.292 5.43175 16.5654 6.27321 16.0429 6.68895L12.4784 9.52439C12.2517 9.70483 12.1547 10.0032 12.2321 10.2824L13.4491 14.6715C13.6276 15.315 12.9118 15.835 12.355 15.4664L8.55675 12.9527C8.31518 12.7928 8.00139 12.7928 7.75981 12.9527L3.96161 15.4664C3.40473 15.835 2.68894 15.315 2.86738 14.6715L4.08441 10.2824C4.16182 10.0032 4.06486 9.70483 3.83813 9.52439L0.273703 6.68895C-0.248911 6.27321 0.024489 5.43175 0.691661 5.4026L5.242 5.20376C5.53145 5.19112 5.78529 5.00668 5.88676 4.73532L7.48203 0.469125Z" fill="#F7CD59"/>
</svg>
